<?xml version="1.0" encoding="iso-8859-1"?>
<!-- Generator: Adobe Illustrator 16.0.0, SVG Export Plug-In . SVG Version: 6.00 Build 0)  -->
<!DOCTYPE svg PUBLIC "-//W3C//DTD SVG 1.1//EN" "http://www.w3.org/Graphics/SVG/1.1/DTD/svg11.dtd">
<svg version="1.1" id="Capa_1" xmlns="http://www.w3.org/2000/svg" xmlns:xlink="http://www.w3.org/1999/xlink" x="0px" y="0px"
	 width="97.053px" height="97.054px" viewBox="0 0 97.053 97.054" style="enable-background:new 0 0 97.053 97.054;"
	 xml:space="preserve">
<g>
	<g>
		<path d="M14.197,52.51c0.433,0.271,0.975,0.307,1.438,0.089l9.077-4.263c0.179,14.207-8.423,23.497-10.149,25.214
			c-0.406,0.403-0.547,1.005-0.361,1.547l1.242,3.639c0.169,0.495,0.583,0.867,1.094,0.98c0.108,0.023,0.217,0.036,0.325,0.036
			c0.403,0,0.795-0.163,1.081-0.46c3.204-3.331,6.341-7.979,8.609-12.753l10.668,4.317c0.757,0.304,1.618-0.048,1.94-0.797
			l2.007-4.658c0.16-0.371,0.164-0.79,0.01-1.163c-0.153-0.374-0.451-0.669-0.825-0.82L29.262,58.93l0,0
			c0.652-2.444,2.16-8.678,2.083-13.75l8.165-3.97c0.516-0.251,0.843-0.773,0.844-1.347l0.007-4.911c0-0.515-0.263-0.994-0.698-1.27
			c-0.435-0.276-0.981-0.308-1.446-0.087l-23.89,11.368c-0.525,0.25-0.858,0.781-0.855,1.362l0.026,4.925
			C13.501,51.762,13.764,52.236,14.197,52.51z"/>
		<polygon points="65.514,60.022 72.592,63.068 68.978,46.284 		"/>
		<path d="M95.792,42.042V2.674c0-0.9-0.453-1.741-1.207-2.235c-0.754-0.496-1.705-0.576-2.529-0.22L48.56,19.041V19.04L4.988,0.816
			c-0.825-0.357-1.776-0.275-2.53,0.219C1.705,1.529,1.252,2.37,1.252,3.271v37.925c0,0.027-0.011,0.051-0.011,0.078v51.911
			c0,0.9,0.453,1.741,1.206,2.235c0.443,0.291,0.954,0.438,1.468,0.438c0.36,0,0.722-0.073,1.062-0.22l43.574-18.855l43.526,20.05
			c0.34,0.146,0.702,0.22,1.062,0.22c0.514,0,1.025-0.148,1.468-0.439c0.753-0.494,1.206-1.334,1.206-2.234V42.466
			C95.814,42.353,95.805,42.206,95.792,42.042z M48.534,70.964L6.59,89.113V43.03l41.978-18.165L48.534,70.964z M83.055,83.075
			c-0.275,0.236-0.623,0.359-0.973,0.359c-0.201,0-0.402-0.04-0.593-0.122l-3.955-1.701c-0.437-0.188-0.758-0.57-0.866-1.033
			l-2.307-9.754l-10.516-4.522L61.887,73.1c-0.118,0.414-0.41,0.756-0.799,0.94c-0.39,0.184-0.838,0.192-1.234,0.021l-4.23-1.82
			c-0.701-0.301-1.063-1.08-0.845-1.811l10.017-33.264c0.123-0.409,0.416-0.747,0.803-0.927c0.387-0.18,0.832-0.187,1.227-0.018
			l5.174,2.225c0.428,0.184,0.748,0.557,0.861,1.009l10.677,42.11C83.676,82.119,83.49,82.704,83.055,83.075z M90.442,35.979
			L55.528,21.854L90.442,6.746V35.979z"/>
	</g>
</g>
<g>
</g>
<g>
</g>
<g>
</g>
<g>
</g>
<g>
</g>
<g>
</g>
<g>
</g>
<g>
</g>
<g>
</g>
<g>
</g>
<g>
</g>
<g>
</g>
<g>
</g>
<g>
</g>
<g>
</g>
</svg>
