<?xml version="1.0" encoding="iso-8859-1"?>
<!-- Generator: Adobe Illustrator 16.0.0, SVG Export Plug-In . SVG Version: 6.00 Build 0)  -->
<!DOCTYPE svg PUBLIC "-//W3C//DTD SVG 1.1//EN" "http://www.w3.org/Graphics/SVG/1.1/DTD/svg11.dtd">
<svg version="1.1" id="Capa_1" xmlns="http://www.w3.org/2000/svg" xmlns:xlink="http://www.w3.org/1999/xlink" x="0px" y="0px"
	 width="31.764px" height="31.764px" viewBox="0 0 31.764 31.764" style="enable-background:new 0 0 31.764 31.764;"
	 xml:space="preserve">
<g>
	<g>
		<path d="M28.831,19.801c0.901,0,1.634-0.73,1.634-1.633c0-0.904-0.73-1.634-1.634-1.634c-0.905,0-1.636,0.729-1.636,1.634
			C27.195,19.07,27.926,19.801,28.831,19.801z"/>
		<circle cx="19.977" cy="18.167" r="1.633"/>
		<circle cx="11.431" cy="18.012" r="1.633"/>
		<circle cx="2.927" cy="18.012" r="1.633"/>
		<circle cx="28.611" cy="23.274" r="2.351"/>
		<polygon points="31.632,26.623 29.738,25.977 28.87,27.018 27.977,25.977 25.898,26.623 25.898,30.508 31.764,30.508 		"/>
		<circle cx="19.977" cy="23.274" r="2.351"/>
		<polygon points="20.884,25.977 20.018,27.018 19.123,25.977 17.046,26.623 17.046,30.508 22.907,30.508 22.777,26.623 		"/>
		<circle cx="24.113" cy="19.995" r="1.718"/>
		<path d="M25.832,21.972h-0.419h-0.638l-0.631,0.762l-0.654-0.762h-0.674h-0.377c0.174,0.401,0.272,0.841,0.272,1.303
			c0,0.754-0.267,1.448-0.698,2.013h4.244l-0.002-0.105c-0.306-0.579-0.521-1.206-0.521-1.906c0-0.462,0.125-0.889,0.266-1.304
			H25.832z"/>
		<circle cx="11.565" cy="23.341" r="2.351"/>
		<polygon points="12.473,26.043 11.604,27.082 10.709,26.043 8.635,26.687 8.635,30.572 14.496,30.572 14.366,26.687 		"/>
		<circle cx="15.702" cy="20.06" r="1.72"/>
		<path d="M17.846,25.248c-0.306-0.578-0.52-1.207-0.52-1.906c0-0.461,0.124-0.889,0.264-1.305h-0.167h-0.419h-0.638l-0.634,0.762
			l-0.654-0.762h-0.673h-0.377c0.175,0.403,0.275,0.842,0.275,1.303c0,0.756-0.267,1.447-0.703,2.015h4.248L17.846,25.248z"/>
		<path d="M2.931,25.691c1.296,0,2.349-1.055,2.349-2.352s-1.053-2.351-2.349-2.351c-1.301,0-2.354,1.054-2.354,2.351
			S1.63,25.691,2.931,25.691z"/>
		<polygon points="3.838,26.043 2.971,27.082 2.074,26.043 0,26.687 0,30.572 5.862,30.572 5.731,26.687 		"/>
		<circle cx="7.068" cy="20.06" r="1.72"/>
		<path d="M9.214,25.354l-0.002-0.106c-0.306-0.578-0.521-1.207-0.521-1.906c0-0.461,0.125-0.889,0.264-1.305H8.789H8.367H7.732
			l-0.634,0.762l-0.655-0.762H5.77H5.396c0.173,0.403,0.271,0.842,0.271,1.303c0,0.756-0.265,1.447-0.701,2.015H9.214z"/>
		<path d="M5.871,7.793c1.825,0,3.303-1.478,3.303-3.301c0-1.823-1.478-3.301-3.303-3.301c-1.82,0-3.299,1.478-3.299,3.301
			C2.572,6.315,4.051,7.793,5.871,7.793z"/>
		<path d="M2.932,15.626H8.9l0.289-5.624l4.633-0.611c0.242,0.204,0.547,0.332,0.882,0.332c0.742,0,1.344-0.602,1.409-1.371
			l1.807,0.882V2.389l-4.817,2.374h-1.672v2.082h1.598l0.657,0.321c-0.167,0.181-0.287,0.407-0.351,0.658L9.193,8.29h-2.12
			L5.815,9.75L4.599,8.29L1.938,8.935l-0.184,5.784h1.132L2.932,15.626z"/>
		<path d="M19.305,7.988l0.457,0.456c0.54-0.611,0.881-1.406,0.881-2.286c0-0.899-0.353-1.712-0.916-2.329L19.27,4.285
			c0.447,0.5,0.729,1.152,0.729,1.873C19.997,6.86,19.73,7.496,19.305,7.988z"/>
		<path d="M20.285,8.967l0.455,0.457c0.791-0.862,1.277-2.006,1.277-3.265c0-1.279-0.502-2.44-1.314-3.306L20.247,3.31
			c0.696,0.749,1.126,1.749,1.126,2.85C21.373,7.239,20.958,8.224,20.285,8.967z"/>
		<path d="M21.15,9.834l0.455,0.456c1.013-1.084,1.638-2.535,1.638-4.131c0-1.617-0.64-3.084-1.675-4.172l-0.455,0.456
			c0.919,0.971,1.484,2.278,1.484,3.716C22.6,7.579,22.047,8.867,21.15,9.834z"/>
	</g>
</g>
<g>
</g>
<g>
</g>
<g>
</g>
<g>
</g>
<g>
</g>
<g>
</g>
<g>
</g>
<g>
</g>
<g>
</g>
<g>
</g>
<g>
</g>
<g>
</g>
<g>
</g>
<g>
</g>
<g>
</g>
</svg>
